<svg xmlns="http://www.w3.org/2000/svg" width="30" height="30" viewBox="0 0 30 30">
    <title>APPS_SOLID</title>
    <path d="M10.61,7.41V9.59a1,1,0,0,1-1,1H7.41a1,1,0,0,1-1-1V7.41a1,1,0,0,1,1-1H9.59A1,1,0,0,1,10.61,7.41Zm5.48-1H13.91a1,1,0,0,0-1,1V9.59a1,1,0,0,0,1,1h2.17a1,1,0,0,0,1-1V7.41A1,1,0,0,0,16.09,6.4Zm6.5,0H20.41a1,1,0,0,0-1,1V9.59a1,1,0,0,0,1,1h2.17a1,1,0,0,0,1-1V7.41A1,1,0,0,0,22.59,6.4Zm-13,6.5H7.41a1,1,0,0,0-1,1v2.17a1,1,0,0,0,1,1H9.59a1,1,0,0,0,1-1V13.91A1,1,0,0,0,9.59,12.9Zm6.5,0H13.91a1,1,0,0,0-1,1v2.17a1,1,0,0,0,1,1h2.17a1,1,0,0,0,1-1V13.91A1,1,0,0,0,16.09,12.9Zm6.5,0H20.41a1,1,0,0,0-1,1v2.17a1,1,0,0,0,1,1h2.17a1,1,0,0,0,1-1V13.91A1,1,0,0,0,22.59,12.9Zm-13,6.5H7.41a1,1,0,0,0-1,1v2.17a1,1,0,0,0,1,1H9.59a1,1,0,0,0,1-1V20.41A1,1,0,0,0,9.59,19.39Zm6.5,0H13.91a1,1,0,0,0-1,1v2.17a1,1,0,0,0,1,1h2.17a1,1,0,0,0,1-1V20.41A1,1,0,0,0,16.09,19.39Zm6.5,0H20.41a1,1,0,0,0-1,1v2.17a1,1,0,0,0,1,1h2.17a1,1,0,0,0,1-1V20.41A1,1,0,0,0,22.59,19.39Z"/>
</svg>
