<svg xmlns="http://www.w3.org/2000/svg" width="22.5" height="30" viewBox="0 0 22.5 30"><title>billing_fill</title><path d="M10.5,13.23v3.38a9.78,9.78,0,0,1-1.08-.35,1.57,1.57,0,0,1-.64-.48,1.52,1.52,0,0,1-.21-.89,2.17,2.17,0,0,1,.07-.4A1.3,1.3,0,0,1,8.92,14a2.15,2.15,0,0,1,.76-.53A2.73,2.73,0,0,1,10.5,13.23Zm3,5.72a4.26,4.26,0,0,0-1-.39L12,18.45v3.79a5.24,5.24,0,0,0,.53-.08,3.07,3.07,0,0,0,.93-.37,2,2,0,0,0,.65-.61,1.53,1.53,0,0,0,.23-.86,1.37,1.37,0,0,0-.22-.81A2,2,0,0,0,13.47,19Zm9-11.45V30H0V0H15ZM15.74,20.28a2.71,2.71,0,0,0-.37-1.48,3.1,3.1,0,0,0-.92-.92,4.59,4.59,0,0,0-1.21-.54L12,17h0V13.25l.43.08a2.4,2.4,0,0,1,.88.42,2,2,0,0,1,.54.72,2.69,2.69,0,0,1,.2,1.13.5.5,0,0,0,.5.5H15a.5.5,0,0,0,.5-.5,3.48,3.48,0,0,0-1.21-2.92A4.31,4.31,0,0,0,12,11.83v-.91a.75.75,0,0,0-1.5,0v.91a4.54,4.54,0,0,0-1.12.22,3.84,3.84,0,0,0-1.26.73,2.81,2.81,0,0,0-.74,1,3.05,3.05,0,0,0-.22,1.07,3.13,3.13,0,0,0,.38,1.62,2.5,2.5,0,0,0,1.17,1,10.53,10.53,0,0,0,1.09.39l.7.19v4.11A3.09,3.09,0,0,1,9,21.57a2.69,2.69,0,0,1-.81-2.2.5.5,0,0,0-.5-.5h-.4a.5.5,0,0,0-.5.5A4.09,4.09,0,0,0,8,22.63a4.54,4.54,0,0,0,2.5,1v.92a.75.75,0,0,0,1.5,0v-.89a7.43,7.43,0,0,0,.93-.13,4.57,4.57,0,0,0,1.38-.57,3.2,3.2,0,0,0,1-1.05A3,3,0,0,0,15.74,20.28ZM21.8,7.69l-7-7v7Z"/></svg>