<svg xmlns="http://www.w3.org/2000/svg" width="30" height="30" viewBox="0 0 30 30"><title>express</title><path d="M15,0A15,15,0,1,0,30,15,15,15,0,0,0,15,0Zm-.07,22.88a1.1,1.1,0,1,1,1.1-1.1A1.1,1.1,0,0,1,14.93,22.88Zm4.39-9.7a13.92,13.92,0,0,1-1.89,2.05,6.25,6.25,0,0,0-1.35,1.67,5,5,0,0,0-.32,2h0a.94.94,0,0,1-1.88,0h0a6.87,6.87,0,0,1,.36-2.44,6.45,6.45,0,0,1,1.6-2.13l.86-.83a4,4,0,0,0,.64-.75,2.66,2.66,0,0,0,.44-1.43,2.76,2.76,0,0,0-.64-1.81,2.6,2.6,0,0,0-2.09-.76,2.57,2.57,0,0,0-2.5,1.32,4.88,4.88,0,0,0-.44,2.1h0v0a.95.95,0,1,1-1.89,0v0h0a5.18,5.18,0,0,1,1.31-3.68,4.68,4.68,0,0,1,3.59-1.39,4.78,4.78,0,0,1,3.39,1.19,4,4,0,0,1,1.27,3A3.32,3.32,0,0,1,19.32,13.18Z"/></svg>