<svg xmlns="http://www.w3.org/2000/svg" width="30" height="30" viewBox="0 0 30 30"><title>settings_fill_v_0.1</title><rect width="30" height="30" fill="none"/><path d="M27.19,11.26A13.59,13.59,0,0,0,26.27,9l.9-2.72L23.69,2.83,21,3.73a13.48,13.48,0,0,0-2.22-.92L17.46.25H12.54L11.26,2.81A13.23,13.23,0,0,0,9,3.73L6.7,3l-.41-.1L2.83,6.31,3.74,9a12.8,12.8,0,0,0-.93,2.23L.25,12.54v4.92l2.56,1.29A13,13,0,0,0,3.74,21a16.5,16.5,0,0,0-.8,2.52v.31l3.37,3.37L9,26.27a13.23,13.23,0,0,0,2.23.92l1.28,2.56h4.92l1.29-2.56A13.48,13.48,0,0,0,21,26.27l2.72.9,3.48-3.48L26.27,21a13.85,13.85,0,0,0,.92-2.22l2.15-1.08.41-.21V12.54ZM21.63,15a6.58,6.58,0,1,1-6.58-6.58A6.59,6.59,0,0,1,21.63,15Z"/></svg>