<svg xmlns="http://www.w3.org/2000/svg" width="30" height="30" viewBox="0 0 30 30"><title>accounting_fill</title><path d="M14.25,10.51v3.38a9.13,9.13,0,0,1-1.08-.35,1.57,1.57,0,0,1-.64-.48,1.52,1.52,0,0,1-.21-.89,2.33,2.33,0,0,1,.07-.4,1.3,1.3,0,0,1,.28-.53,2.15,2.15,0,0,1,.76-.53A2.46,2.46,0,0,1,14.25,10.51Zm3,5.72a4.34,4.34,0,0,0-1-.39l-.45-.11v3.79l.53-.08a3.07,3.07,0,0,0,.93-.37,2,2,0,0,0,.65-.61,1.53,1.53,0,0,0,.23-.86,1.37,1.37,0,0,0-.22-.81A2,2,0,0,0,17.22,16.23ZM30,15A15,15,0,1,1,15,0,15,15,0,0,1,30,15ZM19.49,17.56a2.71,2.71,0,0,0-.37-1.48,3,3,0,0,0-.92-.92A4.59,4.59,0,0,0,17,14.62l-1.21-.34h0V10.53l.43.08a2.26,2.26,0,0,1,.88.43,1.84,1.84,0,0,1,.54.71,2.69,2.69,0,0,1,.2,1.13.5.5,0,0,0,.5.5h.41a.5.5,0,0,0,.5-.5A3.48,3.48,0,0,0,18,10a4.31,4.31,0,0,0-2.25-.85V8.2a.75.75,0,0,0-1.5,0v.91a4.54,4.54,0,0,0-1.12.22,3.84,3.84,0,0,0-1.26.73,2.81,2.81,0,0,0-.74,1,3.05,3.05,0,0,0-.22,1.07,3.13,3.13,0,0,0,.38,1.62,2.5,2.5,0,0,0,1.17,1,10.31,10.31,0,0,0,1.08.39l.71.19v4.11a3.09,3.09,0,0,1-1.53-.62,2.69,2.69,0,0,1-.81-2.2.5.5,0,0,0-.5-.5H11a.5.5,0,0,0-.5.5,4.08,4.08,0,0,0,1.24,3.26,4.54,4.54,0,0,0,2.5,1v.92a.75.75,0,0,0,1.5,0v-.89a7.43,7.43,0,0,0,.93-.13,4.57,4.57,0,0,0,1.38-.57,3.3,3.3,0,0,0,1-1.05A3,3,0,0,0,19.49,17.56Z"/></svg>