<svg xmlns="http://www.w3.org/2000/svg" width="22.5" height="30" viewBox="0 0 22.5 30"><title>timesheet_fill</title><path d="M11.25,24a5.25,5.25,0,1,1,5.25-5.25A5.26,5.26,0,0,1,11.25,24ZM9.47,18.89A1.5,1.5,0,0,0,9.91,20l3.18,3.18L15.21,21l-2.74-2.74V14.39h-3Z"/><path d="M13.22,14.7a4.52,4.52,0,0,1,2.53,4.05,4.61,4.61,0,0,1-.25,1.49L15.21,20l-2-2V14.7M8.72,15v3.86a2.27,2.27,0,0,0,.66,1.59L12,23.13l0,.05a5.55,5.55,0,0,1-.82.07A4.5,4.5,0,0,1,8.72,15m2.53-2.28a6,6,0,1,0,6,6,6,6,0,0,0-6-6Zm1.84,9.32-2.65-2.65a.75.75,0,0,1-.22-.53V15.14h1.5v3.44L14.15,21l-1.06,1.06Z"/><path d="M.75,29.25V.75H14V8.44h7.71V29.25ZM11.25,10.5a8.25,8.25,0,1,0,8.25,8.25A8.26,8.26,0,0,0,11.25,10.5Z"/><path d="M13.29,1.5V9.19H21V28.5H1.5V1.5H13.29m-2,26.25a9,9,0,1,0-9-9,9,9,0,0,0,9,9M15,0H0V30H22.5V7.5L15,0Zm-.21,7.69v-7l7,7ZM11.25,26.25a7.5,7.5,0,1,1,7.5-7.5,7.5,7.5,0,0,1-7.5,7.5Z"/></svg>