<svg xmlns="http://www.w3.org/2000/svg" width="22.5" height="30" viewBox="0 0 22.5 30"><title>trust_fill</title><path d="M9.68,10a2.73,2.73,0,0,1,.82-.2v3.38a9.13,9.13,0,0,1-1.08-.35,1.57,1.57,0,0,1-.64-.48,1.52,1.52,0,0,1-.21-.89,2.17,2.17,0,0,1,.07-.4,1.3,1.3,0,0,1,.28-.53A2.15,2.15,0,0,1,9.68,10Zm3.79,5.52a4.34,4.34,0,0,0-1-.39L12,15v3.79l.53-.08a3,3,0,0,0,.93-.37,2,2,0,0,0,.65-.61,1.53,1.53,0,0,0,.23-.86,1.37,1.37,0,0,0-.22-.81A2,2,0,0,0,13.47,15.53Zm9-11.78V15c0,6-3.56,10-6.67,12.32-.35.27-.69.51-1,.73l-1,.61A19.13,19.13,0,0,1,11.25,30S0,25.61,0,15V3.75L11.25,0ZM15.74,16.86a2.71,2.71,0,0,0-.37-1.48,2.89,2.89,0,0,0-.92-.92,4.59,4.59,0,0,0-1.21-.54L12,13.58h0V9.83l.43.08a2.4,2.4,0,0,1,.88.42,2,2,0,0,1,.54.72,2.69,2.69,0,0,1,.2,1.13.5.5,0,0,0,.5.5H15a.5.5,0,0,0,.5-.5,3.48,3.48,0,0,0-1.21-2.92A4.31,4.31,0,0,0,12,8.41V7.5a.75.75,0,0,0-1.5,0v.91a5.05,5.05,0,0,0-1.12.22,3.84,3.84,0,0,0-1.26.73,2.81,2.81,0,0,0-.74,1,3.05,3.05,0,0,0-.22,1.07,3.13,3.13,0,0,0,.38,1.62,2.45,2.45,0,0,0,1.17,1,10.31,10.31,0,0,0,1.08.39l.71.19v4.11A3.09,3.09,0,0,1,9,18.15,2.69,2.69,0,0,1,8.16,16a.5.5,0,0,0-.5-.5h-.4a.5.5,0,0,0-.5.5A4.06,4.06,0,0,0,8,19.21a4.54,4.54,0,0,0,2.5,1v.92a.75.75,0,0,0,1.5,0v-.89a7.43,7.43,0,0,0,.93-.13,4.46,4.46,0,0,0,1.38-.57,3.33,3.33,0,0,0,1-1.05A3.11,3.11,0,0,0,15.74,16.86Z"/></svg>