<svg xmlns="http://www.w3.org/2000/svg" width="30" height="30" viewBox="0 0 30 30">
    <title>ACCOUNTING_SOLID</title>
    <path d="M20.4,3.75H9.6A3.16,3.16,0,0,0,6.4,6.87V23.05a3.16,3.16,0,0,0,3.12,3.2H20.4a3.16,3.16,0,0,0,3.2-3.12V7a3.16,3.16,0,0,0-3.12-3.2Zm-8.9,19.9H9.7a.7.7,0,0,1,0-1.4h1.8a.7.7,0,0,1,0,1.4Zm0-2.7H9.7a.7.7,0,0,1,0-1.4h1.8a.7.7,0,0,1,0,1.4Zm0-2.6H9.7A.7.7,0,0,1,9,17.67.71.71,0,0,1,9.67,17H11.5a.7.7,0,1,1,0,1.4Zm0-2.7H9.7a.7.7,0,0,1,0-1.4h1.8a.7.7,0,1,1,0,1.4Zm4.4,8H14.1a.7.7,0,0,1,0-1.4h1.8a.7.7,0,0,1,0,1.4Zm0-2.7H14.1a.7.7,0,0,1,0-1.4h1.8a.7.7,0,0,1,0,1.4Zm0-2.6H14.1a.7.7,0,1,1,0-1.4H15.9a.7.7,0,0,1,0,1.4Zm0-2.7H14.1a.7.7,0,1,1,0-1.4H15.9a.7.7,0,0,1,0,1.4Zm4.4,8H18.5a.7.7,0,0,1,0-1.4h1.8a.7.7,0,0,1,0,1.4Zm0-2.7H18.5a.7.7,0,0,1,0-1.4h1.8a.7.7,0,0,1,0,1.4Zm0-2.6H18.5a.7.7,0,0,1-.72-.68.71.71,0,0,1,.69-.72H20.3a.7.7,0,1,1,0,1.4Zm0-2.7H18.5a.7.7,0,0,1-.72-.68.71.71,0,0,1,.69-.72H20.3a.7.7,0,0,1,0,1.4Zm.7-4.6A1.9,1.9,0,0,1,19.1,13h-8a1.9,1.9,0,0,1-1.9-1.9h0V8.35a1.9,1.9,0,0,1,1.9-1.9h8A1.9,1.9,0,0,1,21,8.35h0Z"/>
</svg>