<svg xmlns="http://www.w3.org/2000/svg" width="30" height="30" viewBox="0 0 30 30"><title>releases</title><path d="M15,0A15,15,0,1,0,30,15,15,15,0,0,0,15,0Zm1.55,14.68-.38,1.2c-.48,1.53-.83,2.63-1.05,3.51s-.12,1.45.33,1.75a.89.89,0,0,0,.35.15,5.55,5.55,0,0,1-1.31.85,2.18,2.18,0,0,1-2,0,1.15,1.15,0,0,1-.35-1.12,33.4,33.4,0,0,1,1.62-5.43c.2-.56.35-1,.41-1.2A1.2,1.2,0,0,0,13.78,13a.94.94,0,0,0-.3-.15,4,4,0,0,1,.75-.32,2.36,2.36,0,0,1,2.18.31C16.77,13.21,16.82,13.83,16.55,14.68Zm1-4.64a1.45,1.45,0,0,1-1,.48h0A1.45,1.45,0,0,1,15,9.15a1.48,1.48,0,0,1,1.38-1.56h.08A1.46,1.46,0,0,1,17.54,10Z"/></svg>