<svg xmlns="http://www.w3.org/2000/svg" width="24.67" height="24.67" viewBox="0 0 24.67 24.67"><title>integrations</title><path d="M13.58,23.92a4,4,0,0,0,.26-1.42,4.17,4.17,0,0,0-8.33,0,4,4,0,0,0,.26,1.42h-5V6.08h6.1a.75.75,0,0,0,.62-1.17,2.67,2.67,0,1,1,4.41,0,.74.74,0,0,0,0,.77.75.75,0,0,0,.66.4h6.1v6.09a.75.75,0,0,0,.4.67.85.85,0,0,0,.35.08.72.72,0,0,0,.42-.13,2.72,2.72,0,0,1,1.49-.45,2.66,2.66,0,1,1,0,5.32,2.72,2.72,0,0,1-1.49-.45.77.77,0,0,0-.77-.05.75.75,0,0,0-.4.67v6.09Z"/><path d="M9.67,1.5a1.91,1.91,0,0,1,1.59,3A1.5,1.5,0,0,0,12.5,6.83h5.35v5.34a1.5,1.5,0,0,0,.79,1.33,1.55,1.55,0,0,0,1.55-.08,1.88,1.88,0,0,1,1.07-.33,1.91,1.91,0,1,1,0,3.82,1.88,1.88,0,0,1-1.07-.33,1.5,1.5,0,0,0-2.34,1.25v5.34H14.54a4.92,4.92,0,1,0-9.73,0H1.5V6.83H6.85A1.51,1.51,0,0,0,8.09,4.48a1.83,1.83,0,0,1-.33-1.07A1.92,1.92,0,0,1,9.67,1.5m0-1.5A3.41,3.41,0,0,0,6.85,5.33H0V24.67H7.06a3.41,3.41,0,1,1,6-2.17,3.34,3.34,0,0,1-.81,2.17h7.07V17.83a3.37,3.37,0,0,0,1.91.58,3.41,3.41,0,1,0,0-6.82,3.37,3.37,0,0,0-1.91.58V5.33H12.5A3.41,3.41,0,0,0,9.67,0Z"/></svg>