<svg xmlns="http://www.w3.org/2000/svg" width="30" height="30" viewBox="0 0 30 30">
<path d="M25.5,13l-.7-.35a1.38,1.38,0,0,1-.68-.8,9.58,9.58,0,0,0-.46-1.1,1.38,1.38,0,0,1-.09-1L23.83,9a1.35,1.35,0,0,0-.33-1.39L22.41,6.5A1.35,1.35,0,0,0,21,6.17l-.75.25a1.38,1.38,0,0,1-1-.09,9.53,9.53,0,0,0-1.1-.46,1.38,1.38,0,0,1-.8-.68L17,4.5a1.35,1.35,0,0,0-1.21-.75H14.23A1.35,1.35,0,0,0,13,4.5l-.35.7a1.38,1.38,0,0,1-.8.68,9.53,9.53,0,0,0-1.1.46,1.38,1.38,0,0,1-1,.09L9,6.17a1.35,1.35,0,0,0-1.39.33L6.5,7.59A1.35,1.35,0,0,0,6.17,9l.25.75a1.38,1.38,0,0,1-.09,1,9.56,9.56,0,0,0-.46,1.1,1.38,1.38,0,0,1-.68.8L4.5,13a1.35,1.35,0,0,0-.75,1.21v1.54A1.35,1.35,0,0,0,4.5,17l.7.35a1.38,1.38,0,0,1,.68.8,9.57,9.57,0,0,0,.46,1.1,1.38,1.38,0,0,1,.09,1L6.17,21a1.35,1.35,0,0,0,.33,1.39L7.59,23.5A1.35,1.35,0,0,0,9,23.83l.75-.25a1.38,1.38,0,0,1,1,.09,9.53,9.53,0,0,0,1.1.46,1.38,1.38,0,0,1,.8.68l.35.7a1.35,1.35,0,0,0,1.21.75h1.54A1.35,1.35,0,0,0,17,25.5l.35-.7a1.38,1.38,0,0,1,.8-.68,9.53,9.53,0,0,0,1.1-.46,1.38,1.38,0,0,1,1-.09l.75.25a1.35,1.35,0,0,0,1.39-.33l1.09-1.09A1.35,1.35,0,0,0,23.83,21l-.25-.75a1.38,1.38,0,0,1,.09-1,9.59,9.59,0,0,0,.46-1.1,1.38,1.38,0,0,1,.68-.8l.7-.35a1.35,1.35,0,0,0,.75-1.21V14.23A1.35,1.35,0,0,0,25.5,13ZM15,20.64A5.64,5.64,0,1,1,20.64,15,5.64,5.64,0,0,1,15,20.64Z"/>
</svg>
