<svg xmlns="http://www.w3.org/2000/svg" width="30" height="30" viewBox="0 0 30 30">
<title>ATTENDEES</title>
<path d="M24.71,14.56a2.56,2.56,0,1,0-3.79,0,4.49,4.49,0,0,0-1.47,1.1,8.58,8.58,0,0,0-1.86-.87,4.58,4.58,0,1,0-5.3,0,8.47,8.47,0,0,0-1.79.83,4.48,4.48,0,0,0-1.44-1.06,2.56,2.56,0,1,0-3.79,0,4.48,4.48,0,0,0-2.59,4,.64.64,0,0,0,.64.64H7.25a8.46,8.46,0,0,0-.83,3.64.64.64,0,0,0,.64.64H22.83a.64.64,0,0,0,.64-.64A8.5,8.5,0,0,0,23,20c-.09-.24-.19-.48-.3-.71h4a.64.64,0,0,0,.64-.64A4.48,4.48,0,0,0,24.71,14.56Zm-3.17-1.71a1.28,1.28,0,1,1,1.28,1.28A1.28,1.28,0,0,1,21.54,12.85Zm-9.89-1.79a3.3,3.3,0,1,1,3.3,3.3A3.3,3.3,0,0,1,11.65,11.06ZM5.9,12.85a1.28,1.28,0,1,1,1.28,1.28A1.28,1.28,0,0,1,5.9,12.85ZM4,18a3.17,3.17,0,0,1,5.4-1.58A8.59,8.59,0,0,0,8,18Zm3.69,4.28a7.24,7.24,0,0,1,14.43,0ZM21.91,18a8.54,8.54,0,0,0-1.4-1.53A3.17,3.17,0,0,1,26,18Z"/>
</svg>
