<svg xmlns="http://www.w3.org/2000/svg" width="30" height="30" viewBox="0 0 30 30">
<title>BILLING_SOLID</title>
<path d="M15,3.75A11.25,11.25,0,1,0,26.25,15,11.25,11.25,0,0,0,15,3.75Zm3.06,14.37a2.33,2.33,0,0,1-.77.79,3,3,0,0,1-1,.42,4.22,4.22,0,0,1-.7.1v.67a.56.56,0,1,1-1.12,0v-.69a3.38,3.38,0,0,1-1.88-.73,3,3,0,0,1-.93-2.44.38.38,0,0,1,.38-.38h.3a.38.38,0,0,1,.38.38,2,2,0,0,0,.6,1.65,2.33,2.33,0,0,0,1.15.47V15.27l-.53-.14a6.28,6.28,0,0,1-.81-.3,1.85,1.85,0,0,1-.88-.74,2.31,2.31,0,0,1-.28-1.21,2.11,2.11,0,0,1,.16-.8,2.06,2.06,0,0,1,.55-.78,2.83,2.83,0,0,1,.95-.55,3.37,3.37,0,0,1,.84-.17V9.9a.56.56,0,0,1,1.12,0v.68a3.28,3.28,0,0,1,1.69.64,2.62,2.62,0,0,1,.91,2.19.38.38,0,0,1-.38.38h-.3a.38.38,0,0,1-.38-.38,2.12,2.12,0,0,0-.15-.85,1.43,1.43,0,0,0-.4-.53,1.84,1.84,0,0,0-.66-.32c-.11,0-.22,0-.33-.06v2.81h0l.91.26a3.27,3.27,0,0,1,.91.4,2.27,2.27,0,0,1,.69.69,2,2,0,0,1,.28,1.11A2.19,2.19,0,0,1,18.06,18.12Zm-4.8-5.94a1.08,1.08,0,0,0-.22.4,1.78,1.78,0,0,0,0,.3,1.12,1.12,0,0,0,.16.67,1.09,1.09,0,0,0,.48.35,7,7,0,0,0,.81.27V11.63a2.25,2.25,0,0,0-.62.15A1.65,1.65,0,0,0,13.26,12.18Zm3.41,3.74a3.64,3.64,0,0,0-.77-.29l-.34-.08v2.84a2.76,2.76,0,0,0,.4-.06,2.28,2.28,0,0,0,.7-.28,1.48,1.48,0,0,0,.48-.45,1.13,1.13,0,0,0,.18-.65,1,1,0,0,0-.17-.61A1.4,1.4,0,0,0,16.67,15.92Z"/>
</svg>
