<svg xmlns="http://www.w3.org/2000/svg" width="30" height="30" viewBox="0 0 30 30">
<title>BILL_PROFILE_SOLID</title>
<path d="M23.55,9.46a.86.86,0,0,0-.15-.22L18.12,4a.86.86,0,0,0-.22-.15.75.75,0,0,0-.26-.05H8A1.56,1.56,0,0,0,6.4,5.32V24.68A1.56,1.56,0,0,0,8,26.24H22a1.56,1.56,0,0,0,1.56-1.56v-15A.75.75,0,0,0,23.55,9.46ZM17.48,21.71a4.11,4.11,0,0,1-2.35.77v1a.45.45,0,0,1-.9,0v-1a4.7,4.7,0,0,1-1.07-.19,3.28,3.28,0,0,1-1.2-.63,3,3,0,0,1-.79-1.06,3.54,3.54,0,0,1-.28-1.47h0a.48.48,0,0,1,.95,0h0a3.15,3.15,0,0,0,.32,1.19,2.16,2.16,0,0,0,.65.78,2.4,2.4,0,0,0,.92.45,4,4,0,0,0,.5.09V17.21a10.34,10.34,0,0,1-1.09-.3,3.31,3.31,0,0,1-1-.51,2.29,2.29,0,0,1-.72-.82,2.5,2.5,0,0,1-.28-1.26,2.58,2.58,0,0,1,.23-1.05,2.68,2.68,0,0,1,.66-.89,3.32,3.32,0,0,1,1.11-.63,4.58,4.58,0,0,1,1.1-.2v-1a.45.45,0,0,1,.9,0v1a4.21,4.21,0,0,1,1.08.22,3.09,3.09,0,0,1,1.1.67,2.94,2.94,0,0,1,.65,1,3.42,3.42,0,0,1,.21,1.11s0,0,0,0v0s0,0,0,0h0a.46.46,0,0,1-.46.41.45.45,0,0,1-.46-.41h0a2.34,2.34,0,0,0-.21-1,1.91,1.91,0,0,0-.57-.71,2.34,2.34,0,0,0-.82-.41,4.42,4.42,0,0,0-.5-.1v4.09l.34.08c.38.09.76.2,1.12.32a3.66,3.66,0,0,1,1,.51,2.29,2.29,0,0,1,.68.82,2.73,2.73,0,0,1,.25,1.25A2.7,2.7,0,0,1,17.48,21.71Zm-4.9-8.6a2,2,0,0,0-.42.74,1.75,1.75,0,0,0,0,.82,1.48,1.48,0,0,0,.4.81,2.73,2.73,0,0,0,.79.5,5.84,5.84,0,0,0,.92.28V12.39a2.9,2.9,0,0,0-.83.18A2.25,2.25,0,0,0,12.58,13.11ZM16.5,17.9a4.43,4.43,0,0,0-1-.38l-.36-.09v4.22a3.6,3.6,0,0,0,.92-.16,2.33,2.33,0,0,0,.82-.47,1.89,1.89,0,0,0,.47-.69,2.26,2.26,0,0,0,.16-.82,1.66,1.66,0,0,0-.28-1A2.08,2.08,0,0,0,16.5,17.9Z"/>
</svg>
