<svg xmlns="http://www.w3.org/2000/svg" width="30" height="30" viewBox="0 0 30 30">
<path d="M8.91,6.37H6.61a1,1,0,0,0-1,1V9.7a1,1,0,0,0,1,1h2.3a1,1,0,0,0,1-1V7.4A1,1,0,0,0,8.91,6.37ZM8.71,9.5H6.81V7.6h1.9Zm.2,3.34H6.61a1,1,0,0,0-1,1v2.29a1,1,0,0,0,1,1h2.3a1,1,0,0,0,1-1V13.87A1,1,0,0,0,8.91,12.84ZM8.71,16H6.81v-1.9h1.9Zm.2,3.3H6.61a1,1,0,0,0-1,1v2.3a1,1,0,0,0,1,1h2.3a1,1,0,0,0,1-1V20.3A1,1,0,0,0,8.91,19.27Zm-.2,3.13H6.81V20.5h1.9Zm14.67-16H12.88a1,1,0,0,0-1,1V9.7a1,1,0,0,0,1,1H23.39a1,1,0,0,0,1-1V7.4A1,1,0,0,0,23.39,6.37Zm-.2,3.13H13.07V7.6H23.19Zm.2,3.34H12.88a1,1,0,0,0-1,1v2.29a1,1,0,0,0,1,1H23.39a1,1,0,0,0,1-1V13.87A1,1,0,0,0,23.39,12.84ZM23.19,16H13.07v-1.9H23.19Zm.2,3.3H12.88a1,1,0,0,0-1,1v2.3a1,1,0,0,0,1,1H23.39a1,1,0,0,0,1-1V20.3A1,1,0,0,0,23.39,19.27Zm-.2,3.13H13.07V20.5H23.19Z"/>
</svg>
