<svg xmlns="http://www.w3.org/2000/svg" width="30" height="24.38" viewBox="0 0 30 24.38"><title>contact_multiple_fill</title><path d="M11.25,23.62A40,40,0,0,1,.76,22c.21-3.81,2.59-6.4,6.75-7.32l1.82-.4-1.59-1a6.75,6.75,0,1,1,7,0l-1.59,1,1.82.4c4.16.92,6.54,3.51,6.75,7.32A40,40,0,0,1,11.25,23.62Zm13.3-3.33A10.07,10.07,0,0,0,19.28,13a9.74,9.74,0,0,0,.61-10A5.88,5.88,0,0,1,21,2.88a5.25,5.25,0,0,1,3,9.53l-1.32.94,1.57.4c3.06.77,4.76,2.68,4.95,5.52A36.3,36.3,0,0,1,24.55,20.29Z"/><path d="M11.25,1.5a6,6,0,0,1,3.12,11.12l-3.12,1.9-3.12-1.9A6,6,0,0,1,11.25,1.5M21,3.63a4.49,4.49,0,0,1,2.59,8.16l-2.32,1.65a10.78,10.78,0,0,0-1-.67A10.48,10.48,0,0,0,21.75,7.5,10.37,10.37,0,0,0,21,3.63m.82,10.27,2.26.57c2.53.64,4,2.07,4.33,4.25-.8.21-2,.49-3.28.71a10.71,10.71,0,0,0-3.31-5.53m-10.58.67,3.58.79c2.58.57,5.63,2.09,6.11,6a38.42,38.42,0,0,1-9.69,1.48A38.42,38.42,0,0,1,1.56,21.4c.48-3.95,3.53-5.47,6.11-6l3.58-.79M11.25,0a7.5,7.5,0,0,0-3.9,13.9C2.63,14.94,0,18,0,22.5a40.73,40.73,0,0,0,11.25,1.88A40.73,40.73,0,0,0,22.5,22.5c0-4.5-2.63-7.56-7.35-8.6A7.5,7.5,0,0,0,11.25,0ZM21,2.12a6,6,0,0,0-2.24.44,9,9,0,0,1-.63,10.74,9.39,9.39,0,0,1,5.78,7.83A34.06,34.06,0,0,0,30,19.81c0-3.49-2-5.89-5.54-6.79A6,6,0,0,0,21,2.12Z"/></svg>