<svg xmlns="http://www.w3.org/2000/svg" width="30" height="30" viewBox="0 0 30 30">
<title>FAVORITE</title>
<path d="M25.79,12.48a1,1,0,0,0-.84-.66l-6.54-.52L15.89,5.24a1,1,0,0,0-.89-.6h0a1,1,0,0,0-.89.6L11.6,11.3,5,11.82a1,1,0,0,0-.55,1.7l5,4.26L8,24.17a1,1,0,0,0,1.44,1L15,21.78l5.6,3.43a1,1,0,0,0,1.44-1l-1.53-6.38,5-4.27A1,1,0,0,0,25.79,12.48ZM19.7,17h0a1,1,0,0,0-.31,1L20.85,24,15.5,20.77a1,1,0,0,0-1,0L9.15,24l1.46-6.1a1,1,0,0,0-.31-1L5.54,12.92l6.25-.49a1,1,0,0,0,.82-.59L15,6l2.4,5.79a1,1,0,0,0,.82.59l6.25.49Z"/>
</svg>
