<svg xmlns="http://www.w3.org/2000/svg" width="30" height="30" viewBox="0 0 30 30">
<title>HELP</title>
<path d="M15,3.75A11.25,11.25,0,1,0,26.25,15,11.26,11.26,0,0,0,15,3.75Zm0,21.38A10.13,10.13,0,1,1,25.13,15,10.14,10.14,0,0,1,15,25.13Zm2.5-14.89a2.84,2.84,0,0,1,.91,2.17,2.32,2.32,0,0,1-.33,1.3,10,10,0,0,1-1.35,1.46,4.31,4.31,0,0,0-1,1.19,3.57,3.57,0,0,0-.22,1.43h0a.67.67,0,0,1-1.34,0h0a4.89,4.89,0,0,1,.26-1.74,4.62,4.62,0,0,1,1.14-1.51l.62-.6a2.62,2.62,0,0,0,.45-.54,1.87,1.87,0,0,0,.31-1,2,2,0,0,0-.45-1.28A1.84,1.84,0,0,0,15,10.56a1.83,1.83,0,0,0-1.78.94,3.56,3.56,0,0,0-.32,1.5h0a.67.67,0,1,1-1.34,0h0a3.68,3.68,0,0,1,.93-2.62,3.34,3.34,0,0,1,2.56-1A3.38,3.38,0,0,1,17.5,10.23Zm-1.76,9.6A.78.78,0,1,1,15,19,.78.78,0,0,1,15.73,19.83Z"/>
</svg>
