<svg xmlns="http://www.w3.org/2000/svg" width="30" height="30" viewBox="0 0 30 30">
<title>KEBAB_MENU_CIRCLE</title>
<path d="M20.36,17.36A2.36,2.36,0,1,1,22.72,15,2.36,2.36,0,0,1,20.36,17.36Zm0-3.52A1.16,1.16,0,1,0,21.53,15,1.16,1.16,0,0,0,20.36,13.84ZM15,17.36A2.36,2.36,0,1,1,17.36,15,2.36,2.36,0,0,1,15,17.36Zm0-3.52A1.16,1.16,0,1,0,16.16,15,1.16,1.16,0,0,0,15,13.84ZM9.64,17.36A2.36,2.36,0,1,1,12,15,2.37,2.37,0,0,1,9.64,17.36Zm0-3.52A1.16,1.16,0,1,0,10.8,15,1.17,1.17,0,0,0,9.64,13.84ZM15,3.75A11.25,11.25,0,1,0,26.25,15,11.27,11.27,0,0,0,15,3.75Zm0,21.38A10.13,10.13,0,1,1,25.13,15,10.15,10.15,0,0,1,15,25.13Z"/>
</svg>
