<svg xmlns="http://www.w3.org/2000/svg" width="30" height="30" viewBox="0 0 30 30">
<title>LOGIN</title>
<path d="M27,14.53l-2.91-2.89a.61.61,0,0,0-.43-.18h0l-9.14,0A6.42,6.42,0,0,0,9.2,8.59h0a6.41,6.41,0,0,0,0,12.81h0a6.43,6.43,0,0,0,5.35-2.91h1.89a.61.61,0,0,0,.43-.18l1-1,1,1a.61.61,0,0,0,.86,0l1-1,1,1a.56.56,0,0,0,.43.18h1.45a.61.61,0,0,0,.43-.18L27,15.39A.61.61,0,0,0,27,14.53Zm-3.57,2.73h-.95L21.23,16a.61.61,0,0,0-.86,0l-1,1-1-1a.61.61,0,0,0-.86,0L16.2,17.27h-2a.61.61,0,0,0-.53.3,5.21,5.21,0,0,1-4.48,2.61h0a5.19,5.19,0,0,1,0-10.38h0a5.21,5.21,0,0,1,4.48,2.58.61.61,0,0,0,.53.3h0l9.23,0L25.74,15ZM7.75,12.95h0a2.06,2.06,0,0,0,0,4.12h0a2.06,2.06,0,0,0,0-4.12Zm0,2.9h0a.84.84,0,0,1,0-1.68h0a.84.84,0,0,1,.84.84A.84.84,0,0,1,7.75,15.85Z"/>
</svg>
