<svg xmlns="http://www.w3.org/2000/svg" width="30" height="30" viewBox="0 0 30 30">
<path d="M25.23,12.62l-.67-.33a.75.75,0,0,1-.36-.44,9.55,9.55,0,0,0-.46-1.11.75.75,0,0,1-.05-.57l.24-.71a1.84,1.84,0,0,0-.45-1.89l-1-1a1.84,1.84,0,0,0-1.89-.45l-.71.24a.75.75,0,0,1-.57-.05,9.46,9.46,0,0,0-1.11-.46.75.75,0,0,1-.44-.37l-.34-.67a1.84,1.84,0,0,0-1.65-1H14.27a1.83,1.83,0,0,0-1.65,1l-.34.67a.75.75,0,0,1-.44.36,9.61,9.61,0,0,0-1.11.46.74.74,0,0,1-.57.05l-.71-.24a1.84,1.84,0,0,0-1.89.45l-1,1a1.83,1.83,0,0,0-.45,1.89l.24.71a.75.75,0,0,1-.05.57,9.73,9.73,0,0,0-.46,1.11.75.75,0,0,1-.36.44l-.67.33a1.84,1.84,0,0,0-1,1.65v1.46a1.84,1.84,0,0,0,1,1.65l.67.33a.75.75,0,0,1,.36.44,9.75,9.75,0,0,0,.46,1.11.75.75,0,0,1,.05.57l-.24.71a1.83,1.83,0,0,0,.45,1.89l1,1a1.83,1.83,0,0,0,1.89.45l.71-.24a.75.75,0,0,1,.57.05,9.71,9.71,0,0,0,1.11.46.75.75,0,0,1,.44.37l.34.67a1.83,1.83,0,0,0,1.65,1h1.46a1.84,1.84,0,0,0,1.65-1l.34-.67a.75.75,0,0,1,.44-.36,9.65,9.65,0,0,0,1.11-.46.75.75,0,0,1,.57-.05l.71.24a1.84,1.84,0,0,0,1.89-.45l1-1a1.84,1.84,0,0,0,.45-1.89l-.24-.71a.75.75,0,0,1,.05-.57,9.69,9.69,0,0,0,.46-1.11.75.75,0,0,1,.36-.44l.67-.33a1.84,1.84,0,0,0,1-1.65V14.27A1.84,1.84,0,0,0,25.23,12.62Zm-.1,3.12a.72.72,0,0,1-.4.65l-.67.33a1.87,1.87,0,0,0-.92,1.08,8.41,8.41,0,0,1-.41,1,1.87,1.87,0,0,0-.11,1.41l.24.71a.72.72,0,0,1-.17.74l-1,1a.72.72,0,0,1-.74.17l-.71-.24a1.86,1.86,0,0,0-1.41.11,8.57,8.57,0,0,1-1,.41,1.86,1.86,0,0,0-1.08.92l-.34.67a.72.72,0,0,1-.65.4H14.27a.73.73,0,0,1-.65-.4l-.34-.67a1.86,1.86,0,0,0-1.08-.92,8.57,8.57,0,0,1-1-.41,1.93,1.93,0,0,0-.85-.2,1.78,1.78,0,0,0-.57.09l-.71.24a.72.72,0,0,1-.74-.18l-1-1a.72.72,0,0,1-.17-.74l.24-.71a1.86,1.86,0,0,0-.11-1.41,8.76,8.76,0,0,1-.41-1,1.86,1.86,0,0,0-.92-1.08l-.67-.33a.72.72,0,0,1-.4-.65V14.27a.72.72,0,0,1,.4-.65l.67-.33a1.86,1.86,0,0,0,.92-1.08,8.7,8.7,0,0,1,.41-1,1.85,1.85,0,0,0,.11-1.41L7.14,9.1a.72.72,0,0,1,.18-.74l1-1a.72.72,0,0,1,.74-.18l.71.24a1.87,1.87,0,0,0,1.42-.11,8.37,8.37,0,0,1,1-.41,1.86,1.86,0,0,0,1.08-.92l.34-.67a.72.72,0,0,1,.65-.4h1.46a.72.72,0,0,1,.65.4l.34.67a1.87,1.87,0,0,0,1.08.92,8.35,8.35,0,0,1,1,.41,1.86,1.86,0,0,0,1.41.11l.71-.24a.72.72,0,0,1,.74.18l1,1a.72.72,0,0,1,.18.74l-.24.71a1.87,1.87,0,0,0,.11,1.42,8.42,8.42,0,0,1,.41,1,1.86,1.86,0,0,0,.92,1.08l.67.33a.72.72,0,0,1,.4.65ZM15,8.81A6.16,6.16,0,1,0,21.19,15,6.16,6.16,0,0,0,15,8.81ZM15,20a5,5,0,1,1,5-5A5,5,0,0,1,15,20Z"/>
</svg>
