<svg xmlns="http://www.w3.org/2000/svg" width="30" height="30" viewBox="0 0 30 30">
<title>SUPPORT</title>
<path d="M24.34,13.83h-.68v-1.1a1.33,1.33,0,0,0-.81-1.22c0-4.62-.25-7.39-7.85-7.39S7.16,6.89,7.15,11.5a1.33,1.33,0,0,0-.81,1.22v1.1H5.67a.94.94,0,0,0-.94.94v4.1a.94.94,0,0,0,.94.94h.68v1.1a1.33,1.33,0,0,0,.84,1.23,2.89,2.89,0,0,0,3,2.52h4.39a1.78,1.78,0,1,0,0-1.13H10.14a1.81,1.81,0,0,1-1.79-1.3h1a1.33,1.33,0,0,0,1.33-1.33V12.73A1.33,1.33,0,0,0,9.38,11.4H8.28c0-4.46.27-6.15,6.72-6.15s6.71,1.69,6.72,6.15h-1.1a1.33,1.33,0,0,0-1.33,1.33v8.19a1.33,1.33,0,0,0,1.33,1.33h1.72a1.33,1.33,0,0,0,1.33-1.33v-1.1h.68a.94.94,0,0,0,.94-.94v-4.1A.94.94,0,0,0,24.34,13.83Zm-8.12,9.63a.65.65,0,1,1-.65.65A.65.65,0,0,1,16.21,23.46ZM5.85,18.68V15h.49v3.72Zm3.72-6v8.19a.2.2,0,0,1-.2.2H7.67a.2.2,0,0,1-.2-.2V12.73a.2.2,0,0,1,.2-.2H9.38A.2.2,0,0,1,9.58,12.73Zm12.95,8.19a.2.2,0,0,1-.2.2H20.62a.2.2,0,0,1-.2-.2V12.73a.2.2,0,0,1,.2-.2h1.72a.2.2,0,0,1,.2.2v8.19Zm1.62-2.23h-.49V15h.49Z"/>
</svg>
